<?xml version="1.0" encoding="UTF-8" standalone="no"?>
<svg xmlns="http://www.w3.org/2000/svg" height="360" width="330" version="1.1" viewBox="0 0 330 360">
 <defs>
  <clipPath id="headclippath">
   <path d="m166.3 78.355c-1.2175-0.0091-2.4131-0.000992-3.5814 0.02423-10.42 0.22525-20.91 1.3309-26.863 3.8315-31.34 15.14-36.711 36.183-35.448 65.572 0.53778 10.572 3.2407 20.929 5.318 31.309 1.0311 5.1522 3.5443 15.36 3.5443 15.36s12.242 7.1644 18.906 9.4512c7.5984 2.6068 15.629 4.0148 23.631 4.7264 4.9503 0.44024 9.9269 0.48152 14.904 0.31661 4.9772 0.16491 9.9538 0.12363 14.904-0.31661 8.0014-0.71155 16.032-2.1196 23.631-4.7264 6.664-2.2868 18.906-9.4512 18.906-9.4512-0.00001 0 2.5132-10.208 3.5443-15.36 2.0774-10.38 4.7803-20.737 5.318-31.309 1.2631-29.389-4.1082-50.431-35.448-65.572-5.9533-2.5006-16.443-3.6063-26.863-3.8315-1.1684-0.02526-2.364-0.03331-3.5814-0.02423-0.13456 0.000993-0.27524 0.0066-0.41033 0.0081-0.13508-0.0015-0.27576-0.0071-0.41032-0.0081z" stroke="#000" stroke-width="4"/>
  </clipPath>
 </defs>
 <g stroke="#000" stroke-width="4">
  <path d="m45.296 73.847s-14.739 25.471-20.707 38.891c-5.0206 11.29-12.241 22.5-12.627 34.85-0.63597 20.342 3.42 25.678 17.172 58.59 12.457 29.813 13.255 15.5 32.326 46.467 15.129 24.566 22.571 11.299 50.508 26.264 23.456 12.565 26.135 15.085 53.032 17.174 26.014 2.0204 25.014-7.8262 53.033-17.172 27.526-9.1812 26.34-5.3465 50.508-26.264 23.909-20.693 8.1732-17.96 32.324-46.467 20.603-24.319 17.808-38.248 17.172-58.59-0.3861-12.35-7.6063-23.56-12.627-34.85-5.9678-13.42-20.707-38.891-20.707-38.891s-38.664 34.915-61.619 46.576c-19.11 9.71-58.07 18.57-58.07 18.57s-38.956-8.8616-58.082-18.578c-22.957-11.66-61.623-46.57-61.623-46.57z" fill="#e51015"/>
  <path d="m166.29 7.3813c-1.2175-0.0091-2.4131-0.000992-3.5814 0.02423-10.42 0.22525-20.91 1.3309-26.863 3.8315-31.34 15.14-36.711 36.183-35.448 65.572 0.53778 10.572 3.2407 20.929 5.318 31.309 1.0311 5.1522 3.5443 15.36 3.5443 15.36s12.242 7.1644 18.906 9.4512c7.5984 2.6068 15.629 4.0148 23.631 4.7264 4.9503 0.44024 9.9269 0.48152 14.904 0.31661 4.9772 0.16491 9.9538 0.12363 14.904-0.31661 8.0014-0.71155 16.032-2.1196 23.631-4.7264 6.664-2.2868 18.906-9.4512 18.906-9.4512-0.00001 0 2.5132-10.208 3.5443-15.36 2.0774-10.38 4.7803-20.737 5.318-31.309 1.2631-29.389-4.1082-50.431-35.448-65.572-5.9533-2.5006-16.443-3.6063-26.863-3.8315-1.1684-0.02526-2.364-0.03331-3.5814-0.02423-0.13456 0.000993-0.27524 0.0066-0.41033 0.0081-0.13508-0.0015-0.27576-0.0071-0.41032-0.0081z" fill="#ffd38e"/>
  <path d="m77.65 344.97c-3.7843-9.5606 22.857-20.714 22.857-20.714s2.2213-44.812 4.2857-67.143c0.72857-7.881 3.1397-15.662 2.8571-23.571 0.05-27.943-0.84406-28.116 2.1429-56.429 0 0-41.453-34.403-58.571-55-7.05-8.4825-11.635-18.75-17.857-27.857-1.827-2.6739-5.7143-7.8571-5.7143-7.8571s-8.252-1.3903-12.143-2.8571c-3.7874-1.4279-9.0507-2.0243-10.714-5.7143-2.1124-4.6856 0.13384-11.179 3.5714-15 2.8708-3.191 7.8593-4.0108 12.143-4.2857 3.402-0.21837 10 2.1429 10 2.1429s3.6196-10.117 7.8572-10c2.9052 0.0803 3.9006 4.4525 5 7.1428 1.0957 2.6813 0.83875 5.7356 1.4286 8.5714 0.5997 2.8834 0.43421 6.1727 2.1428 8.5714 3.7931 5.3251 11.236 6.7415 16.429 10.714 9.375 7.173 17.09 16.351 26.429 23.571 8.1498 6.3011 16.023 13.649 25.714 17.143 15.088 5.4403 31.827 4.4736 47.857 5 12.383 0.40668 24.839 0.0291 37.143-1.4286 4.8225-0.57131 9.7949-1.0091 14.286-2.8571 13.191-5.428 24.378-14.914 35.714-23.571 8.3132-6.3483 15.311-14.297 23.571-20.714 4.3285-3.3629 13.571-9.2857 13.571-9.2857l-1.4286-12.143s1.4869-8.7562 5-10c2.712-0.96012 7.8571 3.5714 7.8571 3.5714l5.7143 7.1429s6.1744-1.7846 9.2857-1.4286c2.5477 0.29152 5.2251 1.1547 7.1429 2.8571 2.2311 1.9805 3.5486 4.9663 4.2857 7.8571 0.82362 3.23 0.69197 6.7393 0 10-0.48679 2.2939-1.1424 4.829-2.8571 6.4286-2.0378 1.901-5.0783 2.6464-7.8571 2.8572-3.6317 0.2754-10.714-2.1429-10.714-2.1429s-8.6976 13.254-12.857 20c-3.1932 5.1789-5.497 10.954-9.2857 15.714-16.57 20.82-57.857 55-57.857 55 1.3588 21.371 3.5575 38.416 2.8571 62.143 0 0 6.2205 39.896 7.8572 60 0.5992 7.3604 0.71428 22.143 0.71428 22.143 7.6238 7.7026 28.424 13.996 23.571 24.143-6.2944 13.162-43.571-4.1429-43.571-4.1429s-13.969-52.686-27.857-75.714c-3.3085-5.486-7.0048-11.679-12.857-14.286-5.22-2.3248-12.201-2.8682-17.143 0-6.6411 3.854-8.1127 13.075-11.429 20-8.7259 18.225-14.7 37.643-22.143 56.429-1.8891 4.7681-5.7143 14.286-5.7143 14.286s-35.719 13.335-40.714 0.71429z" fill="#2c62a3"/>
  <path d="m104.67 229.96a63.559 31.921 0 0 0 63.223 28.929 63.559 31.921 0 0 0 63.259 -28.929h-126.48z" fill="#e51015"/>
 </g>
 <path d="m103.01 207.82c20.735 2.3784 41.665 0.91001 62.5 0.85715 21.545-0.0547 41.165 0.26112 64.625-1.2143 3.6447-0.22922 1.8692 8.3778 1.8036 12.63-0.0747 4.8496-0.41468 14.286-2.5 14.334-19.767 0.45687-41.665 1.5002-62.5 1.25-20.254-0.24318-35.671 0.41494-60.714-2.5-2.1588-0.25128-2.4426-8.4962-3.6071-12.678-1.1342-4.0732-3.6738-13.145 0.39285-12.679z" stroke="#000" stroke-width="4" fill="#fffe62"/>
 <g stroke="#000" stroke-width="4">
  <path d="m38.365 50.677c-4.2376-0.11708-7.8574 10-7.8574 10s-6.598-2.3609-10-2.1426c-4.2835 0.27495-9.2718 1.0941-12.143 4.2852-3.4376 3.821-5.6847 10.314-3.5723 15 1.6636 3.69 6.9274 4.287 10.715 5.7148 3.8908 1.4668 12.143 2.8555 12.143 2.8555s3.8878 5.1836 5.7148 7.8574c4.7316 6.9248 8.5185 14.52 13.16 21.492l26.141-22.021c-2.9934-2.8092-6.0443-5.5494-9.3008-8.041-5.1924-3.9728-12.637-5.3898-16.43-10.715-1.7086-2.3988-1.5429-5.6889-2.1426-8.5723-0.58982-2.8359-0.33203-5.889-1.4277-8.5703-1.0994-2.6904-2.0948-7.0623-5-7.1426z" fill="#ffd38e"/>
  <path d="m292.34 51.267c-0.40019-0.032-0.77624 0.003-1.1152 0.12304-3.5131 1.2438-5 10-5 10l1.4277 12.145s-9.2438 5.9222-13.572 9.2852c-4.5074 3.502-8.64 7.4581-12.814 11.363l25.852 21.779c1.3354-2.4972 2.6265-5.026 4.1074-7.4277 4.1595-6.7461 12.855-20 12.855-20s7.0831 2.418 10.715 2.1426c2.7788-0.21073 5.8196-0.95644 7.8574-2.8574 1.7147-1.5996 2.3706-4.1358 2.8574-6.4297 0.69197-3.2607 0.82362-6.77 0-10-0.73714-2.8908-2.0541-5.8749-4.2852-7.8555-1.9178-1.7024-4.5968-2.5659-7.1445-2.8574-3.1114-0.35601-9.2852 1.4277-9.2852 1.4277l-5.7148-7.1426s-3.9389-3.471-6.7402-3.6953z" fill="#ffd38e"/>
  <path d="m102.32 291.65c-1.0443 17.2-1.8125 32.602-1.8125 32.602s-26.642 11.154-22.857 20.715c4.9956 12.621 40.715-0.71484 40.715-0.71484s3.8238-9.517 5.7129-14.285c4.2549-10.739 8.0415-21.68 12.125-32.492l-33.883-5.8242z" fill="#e51015"/>
  <path d="m233.89 292.17-32.807 5.6387c8.2315 22.397 14.43 45.725 14.43 45.725s37.276 17.304 43.57 4.1426c4.8524-10.147-15.946-16.44-23.57-24.143 0 0-0.11564-14.784-0.71484-22.145-0.22329-2.7428-0.54172-5.8908-0.9082-9.2188z" fill="#e51015"/>
 </g>
 <ellipse rx="17.469" ry="14.925" stroke="#000" cy="221.58" cx="164.86" stroke-width="4" fill="#fffe62"/>
 <path d="m137.52 105.68s18.001-3.9273 27.143-3.9286c10.825-0.002 32.143 4.6429 32.143 4.6429s-4.0616 5.785-7.1428 7.1429c-7.3062 3.2197-15.915 2.4522-23.929 2.3341-8.0398-0.1185-17.12 1.1488-23.929-3.0484-2.3636-1.4571-4.2857-7.1428-4.2857-7.1428z" stroke="#000" stroke-width="4" fill="#fff"/>
 <g stroke-width="4">
  <rect stroke-linejoin="round" rx="10" ry="3" height="32.181" width="11.513" stroke="#000" stroke-linecap="round" y="206" x="115.79" fill="#e51015"/>
  <rect stroke-linejoin="round" rx="10" ry="3" height="32.181" width="11.513" stroke="#000" stroke-linecap="round" y="206" x="203.79" fill="#e51015"/>
  <path d="m145.51 138.84-11.126 11.124 30.48 30.48 30.48-30.48-11.124-11.124h-19.355-19.354z" fill-rule="evenodd" stroke="#e51015" fill="#fffe62"/>
 </g>
 <path d="m145.51 138.84-11.126 11.124 30.48 30.48 30.48-30.48-11.124-11.124h-19.355-19.354z" stroke="#000" stroke-width="4" fill="none"/>
 <path d="m166.7 72.426s-37.732-5.7852-53.75 2.2773c-7.3284 3.6887-12.044 11.683-15.486 19.131-5.1847 11.219-6.832 36.441-6.832 36.441l15.941 11.389c0.23402-8.2401 6.8764-17.403 10.477-25.055 3.8541-8.1908 1.0612-6.6918 3.6445-8.1992 15.389-5.9016 30.51-1.0414 46.006 0.00003 16.469 1.1069 33.371-6.3681 46.008-0.00003 2.5829 1.5075 1.5584-0.61014 3.6426 8.1992 1.6038 6.7791 12.037 18.813 10.479 25.055l15.941-11.389s-1.6469-25.223-6.832-36.441c-3.4423-7.4478-8.1594-15.442-15.488-19.131-16.018-8.0621-53.75-2.2773-53.75-2.2773z" clip-path="url(#headclippath)" transform="translate(-.00059644 -70.973)"/>
</svg>
